<svg xmlns="http://www.w3.org/2000/svg" width="375" viewBox="0 0 375 375" height="375" version="1.0"><defs><clipPath id="a"><path d="M 51.980469 51.980469 L 322.730469 51.980469 L 322.730469 322.730469 L 51.980469 322.730469 Z M 51.980469 51.980469"/></clipPath></defs><path d="M 187.375 342.898438 C 145.851562 342.898438 106.753906 326.738281 77.414062 297.335938 C 48.011719 267.996094 31.851562 228.898438 31.851562 187.375 C 31.851562 145.851562 48.011719 106.753906 77.414062 77.414062 C 106.753906 48.011719 145.851562 31.851562 187.375 31.851562 C 228.898438 31.851562 267.996094 48.011719 297.335938 77.414062 C 326.738281 106.816406 342.898438 145.851562 342.898438 187.375 C 342.898438 228.898438 326.738281 267.996094 297.335938 297.335938 C 267.996094 326.738281 228.898438 342.898438 187.375 342.898438 Z M 187.375 41.175781 C 148.339844 41.175781 111.601562 56.40625 84.003906 84.003906 C 56.40625 111.601562 41.175781 148.339844 41.175781 187.375 C 41.175781 226.410156 56.40625 263.148438 84.003906 290.746094 C 111.601562 318.347656 148.339844 333.574219 187.375 333.574219 C 226.410156 333.574219 263.148438 318.347656 290.746094 290.746094 C 318.347656 263.148438 333.574219 226.410156 333.574219 187.375 C 333.574219 148.339844 318.347656 111.601562 290.746094 84.003906 C 263.148438 56.40625 226.410156 41.175781 187.375 41.175781 Z M 187.375 41.175781"/><g clip-path="url(#a)"><path fill="#75C9BC" d="M 322.667969 187.304688 C 322.667969 262.066406 262.066406 322.667969 187.304688 322.667969 C 112.542969 322.667969 51.9375 262.066406 51.9375 187.304688 C 51.9375 112.542969 112.542969 51.9375 187.304688 51.9375 C 262.066406 51.9375 322.667969 112.542969 322.667969 187.304688"/></g><path fill="#FFF" d="M 159.207031 266.046875 C 144.996094 266.046875 133.164062 255.785156 131.046875 241.941406 C 130.824219 241.949219 130.589844 241.949219 130.367188 241.949219 C 112.613281 241.949219 98.167969 227.507812 98.167969 209.761719 C 98.167969 203.15625 100.132812 196.867188 103.851562 191.488281 C 97.863281 185.480469 94.460938 177.277344 94.460938 168.765625 C 94.460938 152.308594 106.949219 138.511719 123.15625 136.757812 C 125.234375 120.835938 139.070312 108.558594 155.285156 108.558594 C 173.152344 108.558594 187.6875 123.09375 187.6875 140.964844 L 187.6875 237.5625 C 187.6875 253.265625 174.90625 266.046875 159.207031 266.046875"/><path fill="#040505" d="M 155.285156 106.859375 C 146.6875 106.859375 138.460938 110.070312 132.152344 115.902344 C 126.570312 121.050781 122.914062 127.835938 121.65625 135.230469 C 105.238281 137.660156 92.75 151.871094 92.75 168.765625 C 92.75 177.265625 95.96875 185.460938 101.671875 191.679688 C 98.257812 197.078125 96.457031 203.265625 96.457031 209.761719 C 96.457031 228.195312 111.265625 243.257812 129.617188 243.652344 C 132.433594 257.597656 144.640625 267.757812 159.207031 267.757812 C 175.847656 267.757812 189.390625 254.207031 189.390625 237.5625 L 189.390625 140.964844 C 189.390625 122.152344 174.09375 106.859375 155.285156 106.859375 Z M 155.285156 110.273438 C 172.230469 110.273438 185.976562 124.007812 185.976562 140.964844 L 185.976562 237.5625 C 185.976562 252.351562 173.984375 264.335938 159.207031 264.335938 C 145.289062 264.335938 133.851562 253.730469 132.546875 240.15625 C 131.828125 240.207031 131.097656 240.238281 130.367188 240.238281 C 113.535156 240.238281 99.878906 226.59375 99.878906 209.761719 C 99.878906 202.8125 102.199219 196.410156 106.109375 191.285156 C 100 185.714844 96.171875 177.691406 96.171875 168.765625 C 96.171875 152.582031 108.785156 139.351562 124.707031 138.351562 C 126.03125 122.621094 139.210938 110.273438 155.285156 110.273438"/><path stroke-linecap="round" transform="matrix(.1013 0 0 -.1013 -28.04 402.648)" fill="none" stroke-linejoin="round" d="M 1813.210401 1841.999718 C 1813.210401 1998.881123 1940.396948 2125.99054 2097.201223 2125.99054" stroke="#040505" stroke-width="33.737" stroke-miterlimit="10"/><path stroke-linecap="round" transform="matrix(.1013 0 0 -.1013 -28.04 402.648)" fill="none" stroke-linejoin="round" d="M 1699.598646 2236.787068 C 1800.098386 2236.787068 1881.585704 2155.29975 1881.585704 2054.800011" stroke="#040505" stroke-width="33.737" stroke-miterlimit="10"/><path stroke-linecap="round" transform="matrix(.1013 0 0 -.1013 -28.04 402.648)" fill="none" stroke-linejoin="round" d="M 1819.804973 2195.792738 C 1750.581246 2336.515513 1808.582631 2506.817451 1949.305405 2576.002613" stroke="#040505" stroke-width="33.737" stroke-miterlimit="10"/><path stroke-linecap="round" transform="matrix(.1013 0 0 -.1013 -28.04 402.648)" fill="none" stroke-linejoin="round" d="M 1790.187245 1513.003832 C 1633.38297 1513.003832 1506.196423 1640.11325 1506.196423 1796.994654" stroke="#040505" stroke-width="33.737" stroke-miterlimit="10"/><path stroke-linecap="round" transform="matrix(.1013 0 0 -.1013 -28.04 402.648)" fill="none" stroke-linejoin="round" d="M 1423.089386 1875.396792 C 1312.215728 1986.309014 1312.215728 2166.097881 1423.089386 2277.010103" stroke="#040505" stroke-width="33.737" stroke-miterlimit="10"/><path stroke-linecap="round" transform="matrix(.1013 0 0 -.1013 -28.04 402.648)" fill="none" stroke-linejoin="round" d="M 1953.817481 1399.81629 C 1861.184951 1399.81629 1786.099382 1474.786165 1786.099382 1567.418695 C 1786.099382 1660.012661 1861.184951 1735.09823 1953.817481 1735.09823" stroke="#040505" stroke-width="33.737" stroke-miterlimit="10"/><path stroke-linecap="round" transform="matrix(.1013 0 0 -.1013 -28.04 402.648)" fill="#FFF" stroke-linejoin="round" d="M 1799.982692 2426.409946 C 1738.086267 2426.409946 1687.913527 2476.582686 1687.913527 2538.517675 C 1687.913527 2600.4141 1738.086267 2650.58684 1799.982692 2650.58684" stroke="#040505" stroke-width="33.737" stroke-miterlimit="10"/><path fill="#FFF" d="M 215.410156 266.046875 C 199.703125 266.046875 186.929688 253.265625 186.929688 237.5625 L 186.929688 140.964844 C 186.929688 123.09375 201.453125 108.558594 219.320312 108.558594 C 235.539062 108.558594 249.375 120.835938 251.449219 136.757812 C 267.65625 138.511719 280.148438 152.308594 280.148438 168.765625 C 280.148438 177.277344 276.742188 185.480469 270.757812 191.488281 C 274.472656 196.875 276.441406 203.15625 276.441406 209.761719 C 276.441406 227.507812 261.996094 241.949219 244.25 241.949219 C 244.015625 241.949219 243.792969 241.949219 243.5625 241.941406 C 241.445312 255.785156 229.613281 266.046875 215.410156 266.046875"/><path fill="#040505" d="M 219.320312 106.859375 C 200.511719 106.859375 185.21875 122.152344 185.21875 140.964844 L 185.21875 237.5625 C 185.21875 254.207031 198.757812 267.757812 215.410156 267.757812 C 229.96875 267.757812 242.171875 257.589844 244.988281 243.652344 C 263.34375 243.257812 278.152344 228.195312 278.152344 209.761719 C 278.152344 203.277344 276.359375 197.078125 272.933594 191.679688 C 278.636719 185.460938 281.859375 177.265625 281.859375 168.765625 C 281.859375 151.871094 269.371094 137.660156 252.949219 135.230469 C 251.695312 127.835938 248.039062 121.050781 242.457031 115.902344 C 236.144531 110.070312 227.921875 106.859375 219.320312 106.859375 Z M 219.320312 110.273438 C 235.386719 110.273438 248.574219 122.621094 249.902344 138.351562 C 265.824219 139.351562 278.433594 152.582031 278.433594 168.765625 C 278.433594 177.691406 274.605469 185.714844 268.5 191.285156 C 272.40625 196.410156 274.726562 202.8125 274.726562 209.761719 C 274.726562 226.59375 261.082031 240.238281 244.25 240.238281 C 243.511719 240.238281 242.78125 240.207031 242.0625 240.15625 C 240.753906 253.730469 229.320312 264.335938 215.410156 264.335938 C 200.625 264.335938 188.628906 252.351562 188.628906 237.5625 L 188.628906 140.964844 C 188.628906 124.007812 202.375 110.273438 219.320312 110.273438"/><path stroke-linecap="round" transform="matrix(.1013 0 0 -.1013 -28.04 402.648)" fill="none" stroke-linejoin="round" d="M 2582.384348 2063.091432 C 2434.411401 2114.883892 2272.28519 2036.905967 2220.49273 1888.894455" stroke="#040505" stroke-width="33.737" stroke-miterlimit="10"/><path stroke-linecap="round" transform="matrix(.1013 0 0 -.1013 -28.04 402.648)" fill="none" stroke-linejoin="round" d="M 2552.380972 2236.787068 C 2451.881233 2236.787068 2370.393915 2155.29975 2370.393915 2054.800011" stroke="#040505" stroke-width="33.737" stroke-miterlimit="10"/><path stroke-linecap="round" transform="matrix(.1013 0 0 -.1013 -28.04 402.648)" fill="none" stroke-linejoin="round" d="M 2432.21321 2195.792738 C 2501.398372 2336.515513 2443.512682 2506.817451 2302.712778 2576.002613" stroke="#040505" stroke-width="33.737" stroke-miterlimit="10"/><path stroke-linecap="round" transform="matrix(.1013 0 0 -.1013 -28.04 402.648)" fill="none" stroke-linejoin="round" d="M 2461.792374 1513.003832 C 2618.596649 1513.003832 2745.706066 1640.11325 2745.706066 1796.994654" stroke="#040505" stroke-width="33.737" stroke-miterlimit="10"/><path stroke-linecap="round" transform="matrix(.1013 0 0 -.1013 -28.04 402.648)" fill="none" stroke-linejoin="round" d="M 2828.890233 1875.396792 C 2939.802455 1986.309014 2939.802455 2166.097881 2828.890233 2277.010103" stroke="#040505" stroke-width="33.737" stroke-miterlimit="10"/><path stroke-linecap="round" transform="matrix(.1013 0 0 -.1013 -28.04 402.648)" fill="none" stroke-linejoin="round" d="M 2298.200702 1399.81629 C 2390.910362 1399.81629 2465.918802 1474.786165 2465.918802 1567.418695 C 2465.918802 1660.012661 2390.910362 1735.09823 2298.200702 1735.09823" stroke="#040505" stroke-width="33.737" stroke-miterlimit="10"/><path stroke-linecap="round" transform="matrix(.1013 0 0 -.1013 -28.04 402.648)" fill="#FFF" stroke-linejoin="round" d="M 2451.996927 2426.409946 C 2513.893351 2426.409946 2564.104656 2476.582686 2564.104656 2538.517675 C 2564.104656 2600.4141 2513.893351 2650.58684 2451.996927 2650.58684" stroke="#040505" stroke-width="33.737" stroke-miterlimit="10"/></svg>